<?xml version="1.0" encoding="UTF-8" standalone="no"?>
<!-- Created with Inkscape (http://www.inkscape.org/) -->

<svg
   xmlns:dc="http://purl.org/dc/elements/1.1/"
   xmlns:cc="http://creativecommons.org/ns#"
   xmlns:rdf="http://www.w3.org/1999/02/22-rdf-syntax-ns#"
   xmlns:svg="http://www.w3.org/2000/svg"
   xmlns="http://www.w3.org/2000/svg"
   xmlns:sodipodi="http://sodipodi.sourceforge.net/DTD/sodipodi-0.dtd"
   xmlns:inkscape="http://www.inkscape.org/namespaces/inkscape"
   id="svg4136"
   version="1.1"
   inkscape:version="0.91 r13725"
   xml:space="preserve"
   width="40.000004"
   height="40.000008"
   viewBox="0 0 40.000004 40.000008"
   sodipodi:docname="faceDetection-small.svg"><metadata
     id="metadata4142"><rdf:RDF><cc:Work
         rdf:about=""><dc:format>image/svg+xml</dc:format><dc:type
           rdf:resource="http://purl.org/dc/dcmitype/StillImage" /><dc:title></dc:title></cc:Work></rdf:RDF></metadata><defs
     id="defs4140"><clipPath
       clipPathUnits="userSpaceOnUse"
       id="clipPath4156"><path
         d="m 0,2500 3000,0 L 3000,0 0,0 0,2500 Z"
         id="path4158"
         inkscape:connector-curvature="0" /></clipPath><clipPath
       clipPathUnits="userSpaceOnUse"
       id="clipPath4847"><rect
         style="color:#000000;clip-rule:nonzero;display:inline;overflow:visible;visibility:visible;opacity:1;isolation:auto;mix-blend-mode:normal;color-interpolation:sRGB;color-interpolation-filters:linearRGB;solid-color:#000000;solid-opacity:1;fill:none;fill-opacity:1;fill-rule:nonzero;stroke:#000000;stroke-width:1.5999999;stroke-linecap:round;stroke-linejoin:miter;stroke-miterlimit:4;stroke-dasharray:none;stroke-dashoffset:0;stroke-opacity:1;color-rendering:auto;image-rendering:auto;shape-rendering:auto;text-rendering:auto;enable-background:accumulate"
         id="rect4849"
         width="1124.5432"
         height="1124.5432"
         x="904.33765"
         y="-2168.6562"
         transform="scale(1,-1)" /></clipPath></defs><sodipodi:namedview
     pagecolor="#ffffff"
     bordercolor="#666666"
     borderopacity="1"
     objecttolerance="10"
     gridtolerance="10"
     guidetolerance="10"
     inkscape:pageopacity="0"
     inkscape:pageshadow="2"
     inkscape:window-width="1920"
     inkscape:window-height="1137"
     id="namedview4138"
     showgrid="false"
     fit-margin-top="0"
     fit-margin-left="0"
     fit-margin-right="0"
     fit-margin-bottom="0"
     inkscape:zoom="6.9933803"
     inkscape:cx="26.245314"
     inkscape:cy="-19.055388"
     inkscape:window-x="-8"
     inkscape:window-y="152"
     inkscape:window-maximized="1"
     inkscape:current-layer="g4144" /><g
     id="g4144"
     inkscape:groupmode="layer"
     inkscape:label="flat-3252983"
     transform="matrix(1.25,0,0,-1.25,-1130.4221,1345.1409)"><g
       id="g4707"
       clip-path="url(#clipPath4847)"
       transform="matrix(0.028456,0,0,0.02977058,878.60382,1013.0289)"><g
         transform="translate(1371.1865,1431.3662)"
         id="g4148"><path
           inkscape:connector-curvature="0"
           id="path4150"
           style="fill:#1b0000;fill-opacity:1;fill-rule:nonzero;stroke:none"
           d="M 0,0 -209.538,0 -165.764,-479.96 0,-465.991 0,0 Z" /></g><g
         transform="translate(1890.8877,1829.418)"
         id="g4160"><path
           inkscape:connector-curvature="0"
           id="path4162"
           style="fill:#2e1500;fill-opacity:1;fill-rule:nonzero;stroke:none"
           d="m 0,0 c 0,0 73.339,-271.234 -67.159,-915.882 l -260.585,-3.526 24.969,1042.71 L 0,0 Z" /></g><g
         transform="translate(1499.999,0)"
         id="g4164"><path
           inkscape:connector-curvature="0"
           id="path4166"
           style="fill:#f6dec9;fill-opacity:1;fill-rule:nonzero;stroke:none"
           d="m 0,0 -794.027,0 c 0,338.781 12.641,589.075 97.129,783.288 60.721,139.581 505.131,202.466 505.131,269.281 l 0,463.249 191.767,0 191.771,0 c 0,0 -0.002,-414.66 -0.002,-463.251 0,-66.813 444.41,-129.703 505.132,-269.283 C 781.39,589.073 794.029,338.781 794.029,0 L 0,0 Z" /></g><g
         transform="translate(1691.77,1515.8184)"
         id="g4168"><path
           inkscape:connector-curvature="0"
           id="path4170"
           style="fill:#f5d2c3;fill-opacity:1;fill-rule:nonzero;stroke:none"
           d="M 0,0 -191.771,-0.006 -383.538,0 l 0,-256.463 c 0,0 111.905,-206.788 383.536,-206.788 C -0.002,-414.66 0,0 0,0" /></g><g
         transform="translate(1205.4229,1579.0986)"
         id="g4172"><path
           inkscape:connector-curvature="0"
           id="path4174"
           style="fill:#f6dec9;fill-opacity:1;fill-rule:nonzero;stroke:none"
           d="M 0,0 C 0,232.807 131.833,421.537 294.46,421.537 457.089,421.537 588.921,232.807 588.921,0 588.921,-232.809 457.089,-421.541 294.46,-421.541 131.833,-421.541 0,-232.809 0,0" /></g><g
         transform="translate(2196.9004,783.2881)"
         id="g4176"><path
           inkscape:connector-curvature="0"
           id="path4178"
           style="fill:#76164b;fill-opacity:1;fill-rule:nonzero;stroke:none"
           d="m 0,0 c -46.417,106.697 -317.032,168.578 -441.962,221.66 -33.065,-79.261 -122.092,-427.133 -254.937,-427.133 -132.846,0 -221.869,347.867 -254.939,427.131 -124.927,-53.08 -395.544,-114.963 -441.961,-221.662 -49.41,-113.574 -74.242,-246.35 -86.349,-404.767 l 247.563,0 c 0,-78.834 22.16,-260.138 93.232,-378.517 l 442.454,0 442.455,0 c 71.072,118.379 93.23,299.679 93.23,378.517 l 247.562,0 C 74.24,-246.354 49.408,-113.578 0,0" /></g><g
         transform="translate(1746.5742,1252.2129)"
         id="g4180"><path
           inkscape:connector-curvature="0"
           id="path4182"
           style="fill:#2e1500;fill-opacity:1;fill-rule:nonzero;stroke:none"
           d="m 0,0 c 78.074,479.607 18.582,462.922 -9.992,461.033 -206.497,-13.625 -420.119,163.928 -420.119,163.928 0,0 -178.5,-261.065 -24.817,-655.016 0,0 -42.137,37.348 -49.436,74.153 0,0 2.073,-233.89 45.799,-463.433 0,0 -19.904,19.46 -28.501,67.356 0,0 60.128,-308.642 30.915,-416.505 0,0 -131.433,295.544 -160.5,388.511 -47.327,151.357 -29.529,411.429 -29.529,729.019 0,330.656 122.699,351.461 122.699,351.461 0,0 -119.582,166.28 148.093,166.28 191.958,0 504.759,-26.115 528.42,-357.369 L 0,0 Z" /></g><g
         transform="translate(1278.1294,1711.5088)"
         id="g4184"><path
           inkscape:connector-curvature="0"
           id="path4186"
           style="fill:#ec0035;fill-opacity:1;fill-rule:nonzero;stroke:none"
           d="m 0,0 c 0,-4.138 -3.354,-7.492 -7.492,-7.492 -4.137,0 -7.491,3.354 -7.491,7.492 0,4.137 3.354,7.491 7.491,7.491 C -3.354,7.491 0,4.137 0,0" /></g><g
         transform="translate(1247.4819,1629.7822)"
         id="g4188"><path
           inkscape:connector-curvature="0"
           id="path4190"
           style="fill:#ec0035;fill-opacity:1;fill-rule:nonzero;stroke:none"
           d="m 0,0 c 0,-4.138 -3.354,-7.492 -7.492,-7.492 -4.137,0 -7.491,3.354 -7.491,7.492 0,4.137 3.354,7.491 7.491,7.491 C -3.354,7.491 0,4.137 0,0" /></g><g
         transform="translate(1306.0527,1629.7822)"
         id="g4192"><path
           inkscape:connector-curvature="0"
           id="path4194"
           style="fill:#ec0035;fill-opacity:1;fill-rule:nonzero;stroke:none"
           d="m 0,0 c 0,-4.138 -3.354,-7.492 -7.492,-7.492 -4.137,0 -7.491,3.354 -7.491,7.492 0,4.137 3.354,7.491 7.491,7.491 C -3.354,7.491 0,4.137 0,0" /></g><g
         transform="translate(1360.5371,1679.499)"
         id="g4196"><path
           inkscape:connector-curvature="0"
           id="path4198"
           style="fill:#ec0035;fill-opacity:1;fill-rule:nonzero;stroke:none"
           d="m 0,0 c 0,-4.138 -3.354,-7.492 -7.492,-7.492 -4.137,0 -7.491,3.354 -7.491,7.492 0,4.138 3.354,7.491 7.491,7.491 C -3.354,7.491 0,4.138 0,0" /></g><g
         transform="translate(1356.4507,1602.54)"
         id="g4200"><path
           inkscape:connector-curvature="0"
           id="path4202"
           style="fill:#ec0035;fill-opacity:1;fill-rule:nonzero;stroke:none"
           d="m 0,0 c 0,-4.138 -3.354,-7.492 -7.491,-7.492 -4.138,0 -7.492,3.354 -7.492,7.492 0,4.137 3.354,7.491 7.492,7.491 C -3.354,7.491 0,4.137 0,0" /></g><g
         transform="translate(1295.1558,1521.4941)"
         id="g4204"><path
           inkscape:connector-curvature="0"
           id="path4206"
           style="fill:#ec0035;fill-opacity:1;fill-rule:nonzero;stroke:none"
           d="m 0,0 c 0,-4.138 -3.354,-7.492 -7.492,-7.492 -4.137,0 -7.491,3.354 -7.491,7.492 0,4.138 3.354,7.491 7.491,7.491 C -3.354,7.491 0,4.138 0,0" /></g><g
         transform="translate(1310.1392,1317.1777)"
         id="g4208"><path
           inkscape:connector-curvature="0"
           id="path4210"
           style="fill:#ec0035;fill-opacity:1;fill-rule:nonzero;stroke:none"
           d="m 0,0 c 0,-4.138 -3.354,-7.492 -7.492,-7.492 -4.137,0 -7.491,3.354 -7.491,7.492 0,4.138 3.354,7.491 7.491,7.491 C -3.354,7.491 0,4.138 0,0" /></g><g
         transform="translate(1413.6597,1349.8682)"
         id="g4212"><path
           inkscape:connector-curvature="0"
           id="path4214"
           style="fill:#ec0035;fill-opacity:1;fill-rule:nonzero;stroke:none"
           d="m 0,0 c 0,-4.138 -3.354,-7.491 -7.492,-7.491 -4.137,0 -7.491,3.353 -7.491,7.491 0,4.138 3.354,7.491 7.491,7.491 C -3.354,7.491 0,4.138 0,0" /></g><g
         transform="translate(1453.1606,1445.2158)"
         id="g4216"><path
           inkscape:connector-curvature="0"
           id="path4218"
           style="fill:#ec0035;fill-opacity:1;fill-rule:nonzero;stroke:none"
           d="m 0,0 c 0,-4.138 -3.354,-7.491 -7.492,-7.491 -4.137,0 -7.491,3.353 -7.491,7.491 0,4.138 3.354,7.491 7.491,7.491 C -3.354,7.491 0,4.138 0,0" /></g><g
         transform="translate(1442.2637,1483.3545)"
         id="g4220"><path
           inkscape:connector-curvature="0"
           id="path4222"
           style="fill:#ec0035;fill-opacity:1;fill-rule:nonzero;stroke:none"
           d="m 0,0 c 0,-4.137 -3.354,-7.491 -7.492,-7.491 -4.137,0 -7.491,3.354 -7.491,7.491 0,4.138 3.354,7.492 7.491,7.492 C -3.354,7.492 0,4.138 0,0" /></g><g
         transform="translate(1470.8682,1521.4941)"
         id="g4224"><path
           inkscape:connector-curvature="0"
           id="path4226"
           style="fill:#ec0035;fill-opacity:1;fill-rule:nonzero;stroke:none"
           d="m 0,0 c 0,-4.138 -3.354,-7.492 -7.492,-7.492 -4.137,0 -7.491,3.354 -7.491,7.492 0,4.138 3.354,7.491 7.491,7.491 C -3.354,7.491 0,4.138 0,0" /></g><g
         transform="translate(1442.2637,1612.7559)"
         id="g4228"><path
           inkscape:connector-curvature="0"
           id="path4230"
           style="fill:#ec0035;fill-opacity:1;fill-rule:nonzero;stroke:none"
           d="m 0,0 c 0,-4.138 -3.354,-7.492 -7.492,-7.492 -4.137,0 -7.491,3.354 -7.491,7.492 0,4.137 3.354,7.491 7.491,7.491 C -3.354,7.491 0,4.137 0,0" /></g><g
         transform="translate(1474.2734,1640.6787)"
         id="g4232"><path
           inkscape:connector-curvature="0"
           id="path4234"
           style="fill:#ec0035;fill-opacity:1;fill-rule:nonzero;stroke:none"
           d="m 0,0 c 0,-4.138 -3.354,-7.491 -7.492,-7.491 -4.137,0 -7.491,3.353 -7.491,7.491 0,4.138 3.354,7.491 7.491,7.491 C -3.354,7.491 0,4.138 0,0" /></g><g
         transform="translate(1513.0938,1691.7578)"
         id="g4236"><path
           inkscape:connector-curvature="0"
           id="path4238"
           style="fill:#ec0035;fill-opacity:1;fill-rule:nonzero;stroke:none"
           d="m 0,0 c 0,-4.138 -3.354,-7.491 -7.492,-7.491 -4.137,0 -7.491,3.353 -7.491,7.491 0,4.138 3.354,7.491 7.491,7.491 C -3.354,7.491 0,4.138 0,0" /></g><g
         transform="translate(1513.0938,1622.29)"
         id="g4240"><path
           inkscape:connector-curvature="0"
           id="path4242"
           style="fill:#ec0035;fill-opacity:1;fill-rule:nonzero;stroke:none"
           d="m 0,0 c 0,-4.138 -3.354,-7.491 -7.492,-7.491 -4.137,0 -7.491,3.353 -7.491,7.491 0,4.138 3.354,7.492 7.491,7.492 C -3.354,7.492 0,4.138 0,0" /></g><g
         transform="translate(1513.0938,1496.2949)"
         id="g4244"><path
           inkscape:connector-curvature="0"
           id="path4246"
           style="fill:#ec0035;fill-opacity:1;fill-rule:nonzero;stroke:none"
           d="m 0,0 c 0,-4.138 -3.354,-7.491 -7.492,-7.491 -4.137,0 -7.491,3.353 -7.491,7.491 0,4.138 3.354,7.491 7.491,7.491 C -3.354,7.491 0,4.138 0,0" /></g><g
         transform="translate(1513.0938,1441.1299)"
         id="g4248"><path
           inkscape:connector-curvature="0"
           id="path4250"
           style="fill:#ec0035;fill-opacity:1;fill-rule:nonzero;stroke:none"
           d="m 0,0 c 0,-4.138 -3.354,-7.492 -7.492,-7.492 -4.137,0 -7.491,3.354 -7.491,7.492 0,4.137 3.354,7.491 7.491,7.491 C -3.354,7.491 0,4.137 0,0" /></g><g
         transform="translate(1513.0938,1392.7744)"
         id="g4252"><path
           inkscape:connector-curvature="0"
           id="path4254"
           style="fill:#ec0035;fill-opacity:1;fill-rule:nonzero;stroke:none"
           d="m 0,0 c 0,-4.138 -3.354,-7.491 -7.492,-7.491 -4.137,0 -7.491,3.353 -7.491,7.491 0,4.138 3.354,7.492 7.491,7.492 C -3.354,7.492 0,4.138 0,0" /></g><g
         transform="translate(1513.0938,1292.6592)"
         id="g4256"><path
           inkscape:connector-curvature="0"
           id="path4258"
           style="fill:#ec0035;fill-opacity:1;fill-rule:nonzero;stroke:none"
           d="m 0,0 c 0,-4.138 -3.354,-7.491 -7.492,-7.491 -4.137,0 -7.491,3.353 -7.491,7.491 0,4.138 3.354,7.492 7.491,7.492 C -3.354,7.492 0,4.138 0,0" /></g><g
         transform="translate(1453.1606,1297.4268)"
         id="g4260"><path
           inkscape:connector-curvature="0"
           id="path4262"
           style="fill:#ec0035;fill-opacity:1;fill-rule:nonzero;stroke:none"
           d="m 0,0 c 0,-4.138 -3.354,-7.491 -7.492,-7.491 -4.137,0 -7.491,3.353 -7.491,7.491 0,4.138 3.354,7.492 7.491,7.492 C -3.354,7.492 0,4.138 0,0" /></g><g
         transform="translate(1513.0938,1158.4912)"
         id="g4264"><path
           inkscape:connector-curvature="0"
           id="path4266"
           style="fill:#ec0035;fill-opacity:1;fill-rule:nonzero;stroke:none"
           d="m 0,0 c 0,-4.137 -3.354,-7.491 -7.492,-7.491 -4.137,0 -7.491,3.354 -7.491,7.491 0,4.138 3.354,7.492 7.491,7.492 C -3.354,7.492 0,4.138 0,0" /></g><g
         transform="translate(1241.1157,1631.1436)"
         id="g4268"><path
           inkscape:connector-curvature="0"
           id="path4270"
           style="fill:#ec0035;fill-opacity:1;fill-rule:nonzero;stroke:none"
           d="M 0,0 55.684,0 29.137,78.994 0,0 Z m 58.526,-2.043 -61.458,0 32.159,87.184 29.299,-87.184 z" /></g><g
         transform="translate(1277.0332,1711.585)"
         id="g4272"><path
           inkscape:connector-curvature="0"
           id="path4274"
           style="fill:#ec0035;fill-opacity:1;fill-rule:nonzero;stroke:none"
           d="M 0,0 75.832,-30.709 218.094,-19.427 0,0 Z m 75.512,-32.783 -0.223,0.09 -88.761,35.945 243.834,-21.721 -0.01,-2.036 -154.84,-12.278 z" /></g><g
         transform="translate(1242.4956,1621.123)"
         id="g4276"><path
           inkscape:connector-curvature="0"
           id="path4278"
           style="fill:#ec0035;fill-opacity:1;fill-rule:nonzero;stroke:none"
           d="M 0,0 57.595,-287.349 43.822,-99.538 0,0 Z M 58.81,-303.807 -5.691,17.998 45.834,-99.038 l 0.013,-0.175 14.984,-204.317 -2.021,-0.277 z" /></g><g
         transform="translate(1299.0835,1628.4941)"
         id="g4280"><path
           inkscape:connector-curvature="0"
           id="path4282"
           style="fill:#ec0035;fill-opacity:1;fill-rule:nonzero;stroke:none"
           d="M 0,0 -10.379,-103.14 48.002,-25.947 0,0 Z M -13.141,-110.179 -1.726,3.256 51.068,-25.281 -13.141,-110.179 Z" /></g><g
         transform="translate(1434.8379,1482.5342)"
         id="g4284"><path
           inkscape:connector-curvature="0"
           id="path4286"
           style="fill:#ec0035;fill-opacity:1;fill-rule:nonzero;stroke:none"
           d="m 0,0 -155.525,40.322 179.637,0 0,-2.043 -163.615,0 138.691,-35.957 27.563,36.752 -115.727,81.972 86.06,10.246 -79.18,64.663 -53.833,-49.122 -1.377,1.51 55.136,50.311 0.683,-0.558 L 2.103,129.831 -83.463,119.646 29.646,39.527 0,0 Z" /></g><g
         transform="translate(1447.6367,1299.2578)"
         id="g4288"><path
           inkscape:connector-curvature="0"
           id="path4290"
           style="fill:#ec0035;fill-opacity:1;fill-rule:nonzero;stroke:none"
           d="m 0,0 56.944,-135.362 0,128.245 L 0,0 Z M 58.987,-145.489 -3.254,2.467 l 60.198,-7.525 0,394.562 -37.392,-48.446 -0.076,-0.066 -31.507,-27.485 28.405,-90.624 -1.949,-0.612 -28.804,91.898 32.436,28.296 40.93,53.031 0,-540.985 z" /></g><g
         transform="translate(1307.1367,1317.9717)"
         id="g4292"><path
           inkscape:connector-curvature="0"
           id="path4294"
           style="fill:#ec0035;fill-opacity:1;fill-rule:nonzero;stroke:none"
           d="M 0,0 135.848,-16.173 98.328,31.052 0,0 Z M 198.171,-162.664 -8.292,0.987 -4.927,0.586 99.053,33.423 140.536,-18.788 -1.367,-1.896 199.44,-161.062 l -1.269,-1.602 z" /></g><g
         transform="translate(1505.396,1393.3193)"
         id="g4296"><path
           inkscape:connector-curvature="0"
           id="path4298"
           style="fill:#ec0035;fill-opacity:1;fill-rule:nonzero;stroke:none"
           d="M 0,0 -37.118,7.648 -36.706,9.65 0.412,2.002 0,0 Z" /></g><g
         transform="translate(1447.4282,1443.0957)"
         id="g4300"><path
           inkscape:connector-curvature="0"
           id="path4302"
           style="fill:#ec0035;fill-opacity:1;fill-rule:nonzero;stroke:none"
           d="M 0,0 -38.3,-89.368 19.789,-40.854 0,0 Z m -157.071,76.162 115.939,-166.951 39.75,92.75 -155.689,74.201 z m 113.531,-172.567 1.458,3.4 L -163.138,81.316 0.211,3.465 58.251,-0.947 58.096,-2.984 1.637,1.308 22.323,-41.399 -43.54,-96.405 Z" /></g><g
         transform="translate(1446.4043,1445.2285)"
         id="g4304"><path
           inkscape:connector-curvature="0"
           id="path4306"
           style="fill:#ec0035;fill-opacity:1;fill-rule:nonzero;stroke:none"
           d="M 0,0 -13.322,39.266 56.33,51.596 15.351,76.184 58.198,179.76 20.34,194.842 21.096,196.74 60.878,180.893 17.913,77.029 62.066,50.537 -10.623,37.668 1.935,0.656 0,0 Z" /></g><g
         transform="translate(1733.0742,1711.5088)"
         id="g4308"><path
           inkscape:connector-curvature="0"
           id="path4310"
           style="fill:#ec0035;fill-opacity:1;fill-rule:nonzero;stroke:none"
           d="m 0,0 c 0,-4.138 3.354,-7.492 7.492,-7.492 4.137,0 7.491,3.354 7.491,7.492 0,4.137 -3.354,7.491 -7.491,7.491 C 3.354,7.491 0,4.137 0,0" /></g><g
         transform="translate(1763.7217,1629.7822)"
         id="g4312"><path
           inkscape:connector-curvature="0"
           id="path4314"
           style="fill:#ec0035;fill-opacity:1;fill-rule:nonzero;stroke:none"
           d="m 0,0 c 0,-4.138 3.354,-7.492 7.492,-7.492 4.137,0 7.491,3.354 7.491,7.492 0,4.137 -3.354,7.491 -7.491,7.491 C 3.354,7.491 0,4.137 0,0" /></g><g
         transform="translate(1705.1509,1629.7822)"
         id="g4316"><path
           inkscape:connector-curvature="0"
           id="path4318"
           style="fill:#ec0035;fill-opacity:1;fill-rule:nonzero;stroke:none"
           d="m 0,0 c 0,-4.138 3.354,-7.492 7.492,-7.492 4.137,0 7.491,3.354 7.491,7.492 0,4.137 -3.354,7.491 -7.491,7.491 C 3.354,7.491 0,4.137 0,0" /></g><g
         transform="translate(1650.6665,1679.499)"
         id="g4320"><path
           inkscape:connector-curvature="0"
           id="path4322"
           style="fill:#ec0035;fill-opacity:1;fill-rule:nonzero;stroke:none"
           d="m 0,0 c 0,-4.138 3.354,-7.492 7.492,-7.492 4.137,0 7.491,3.354 7.491,7.492 0,4.138 -3.354,7.491 -7.491,7.491 C 3.354,7.491 0,4.138 0,0" /></g><g
         transform="translate(1654.7529,1602.54)"
         id="g4324"><path
           inkscape:connector-curvature="0"
           id="path4326"
           style="fill:#ec0035;fill-opacity:1;fill-rule:nonzero;stroke:none"
           d="m 0,0 c 0,-4.138 3.354,-7.492 7.492,-7.492 4.137,0 7.491,3.354 7.491,7.492 0,4.137 -3.354,7.491 -7.491,7.491 C 3.354,7.491 0,4.137 0,0" /></g><g
         transform="translate(1716.0479,1521.4941)"
         id="g4328"><path
           inkscape:connector-curvature="0"
           id="path4330"
           style="fill:#ec0035;fill-opacity:1;fill-rule:nonzero;stroke:none"
           d="m 0,0 c 0,-4.138 3.354,-7.492 7.492,-7.492 4.137,0 7.491,3.354 7.491,7.492 0,4.138 -3.354,7.491 -7.491,7.491 C 3.354,7.491 0,4.138 0,0" /></g><g
         transform="translate(1701.0649,1317.1777)"
         id="g4332"><path
           inkscape:connector-curvature="0"
           id="path4334"
           style="fill:#ec0035;fill-opacity:1;fill-rule:nonzero;stroke:none"
           d="m 0,0 c 0,-4.138 3.354,-7.492 7.491,-7.492 4.138,0 7.492,3.354 7.492,7.492 0,4.138 -3.354,7.491 -7.492,7.491 C 3.354,7.491 0,4.138 0,0" /></g><g
         transform="translate(1597.5444,1349.8682)"
         id="g4336"><path
           inkscape:connector-curvature="0"
           id="path4338"
           style="fill:#ec0035;fill-opacity:1;fill-rule:nonzero;stroke:none"
           d="m 0,0 c 0,-4.138 3.354,-7.491 7.492,-7.491 4.137,0 7.491,3.353 7.491,7.491 0,4.138 -3.354,7.491 -7.491,7.491 C 3.354,7.491 0,4.138 0,0" /></g><g
         transform="translate(1558.043,1445.2158)"
         id="g4340"><path
           inkscape:connector-curvature="0"
           id="path4342"
           style="fill:#ec0035;fill-opacity:1;fill-rule:nonzero;stroke:none"
           d="m 0,0 c 0,-4.138 3.354,-7.491 7.492,-7.491 4.137,0 7.491,3.353 7.491,7.491 0,4.138 -3.354,7.491 -7.491,7.491 C 3.354,7.491 0,4.138 0,0" /></g><g
         transform="translate(1568.9399,1483.3545)"
         id="g4344"><path
           inkscape:connector-curvature="0"
           id="path4346"
           style="fill:#ec0035;fill-opacity:1;fill-rule:nonzero;stroke:none"
           d="m 0,0 c 0,-4.137 3.354,-7.491 7.492,-7.491 4.137,0 7.491,3.354 7.491,7.491 0,4.138 -3.354,7.492 -7.491,7.492 C 3.354,7.492 0,4.138 0,0" /></g><g
         transform="translate(1540.3359,1521.4941)"
         id="g4348"><path
           inkscape:connector-curvature="0"
           id="path4350"
           style="fill:#ec0035;fill-opacity:1;fill-rule:nonzero;stroke:none"
           d="m 0,0 c 0,-4.138 3.354,-7.492 7.491,-7.492 4.138,0 7.492,3.354 7.492,7.492 0,4.138 -3.354,7.491 -7.492,7.491 C 3.354,7.491 0,4.138 0,0" /></g><g
         transform="translate(1568.9399,1612.7559)"
         id="g4352"><path
           inkscape:connector-curvature="0"
           id="path4354"
           style="fill:#ec0035;fill-opacity:1;fill-rule:nonzero;stroke:none"
           d="m 0,0 c 0,-4.138 3.354,-7.492 7.492,-7.492 4.137,0 7.491,3.354 7.491,7.492 0,4.137 -3.354,7.491 -7.491,7.491 C 3.354,7.491 0,4.137 0,0" /></g><g
         transform="translate(1536.9307,1640.6787)"
         id="g4356"><path
           inkscape:connector-curvature="0"
           id="path4358"
           style="fill:#ec0035;fill-opacity:1;fill-rule:nonzero;stroke:none"
           d="m 0,0 c 0,-4.138 3.354,-7.491 7.491,-7.491 4.138,0 7.492,3.353 7.492,7.491 0,4.138 -3.354,7.491 -7.492,7.491 C 3.354,7.491 0,4.138 0,0" /></g><g
         transform="translate(1498.1104,1691.7578)"
         id="g4360"><path
           inkscape:connector-curvature="0"
           id="path4362"
           style="fill:#ec0035;fill-opacity:1;fill-rule:nonzero;stroke:none"
           d="m 0,0 c 0,-4.138 3.354,-7.491 7.492,-7.491 4.137,0 7.491,3.353 7.491,7.491 0,4.138 -3.354,7.491 -7.491,7.491 C 3.354,7.491 0,4.138 0,0" /></g><g
         transform="translate(1498.1104,1622.29)"
         id="g4364"><path
           inkscape:connector-curvature="0"
           id="path4366"
           style="fill:#ec0035;fill-opacity:1;fill-rule:nonzero;stroke:none"
           d="m 0,0 c 0,-4.138 3.354,-7.491 7.492,-7.491 4.137,0 7.491,3.353 7.491,7.491 0,4.138 -3.354,7.492 -7.491,7.492 C 3.354,7.492 0,4.138 0,0" /></g><g
         transform="translate(1498.1104,1496.2949)"
         id="g4368"><path
           inkscape:connector-curvature="0"
           id="path4370"
           style="fill:#ec0035;fill-opacity:1;fill-rule:nonzero;stroke:none"
           d="m 0,0 c 0,-4.138 3.354,-7.491 7.492,-7.491 4.137,0 7.491,3.353 7.491,7.491 0,4.138 -3.354,7.491 -7.491,7.491 C 3.354,7.491 0,4.138 0,0" /></g><g
         transform="translate(1498.1104,1441.1299)"
         id="g4372"><path
           inkscape:connector-curvature="0"
           id="path4374"
           style="fill:#ec0035;fill-opacity:1;fill-rule:nonzero;stroke:none"
           d="m 0,0 c 0,-4.138 3.354,-7.492 7.492,-7.492 4.137,0 7.491,3.354 7.491,7.492 0,4.137 -3.354,7.491 -7.491,7.491 C 3.354,7.491 0,4.137 0,0" /></g><g
         transform="translate(1498.1104,1392.7744)"
         id="g4376"><path
           inkscape:connector-curvature="0"
           id="path4378"
           style="fill:#ec0035;fill-opacity:1;fill-rule:nonzero;stroke:none"
           d="m 0,0 c 0,-4.138 3.354,-7.491 7.492,-7.491 4.137,0 7.491,3.353 7.491,7.491 0,4.138 -3.354,7.492 -7.491,7.492 C 3.354,7.492 0,4.138 0,0" /></g><g
         transform="translate(1498.1104,1292.6592)"
         id="g4380"><path
           inkscape:connector-curvature="0"
           id="path4382"
           style="fill:#ec0035;fill-opacity:1;fill-rule:nonzero;stroke:none"
           d="m 0,0 c 0,-4.138 3.354,-7.491 7.492,-7.491 4.137,0 7.491,3.353 7.491,7.491 0,4.138 -3.354,7.492 -7.491,7.492 C 3.354,7.492 0,4.138 0,0" /></g><g
         transform="translate(1558.043,1297.4268)"
         id="g4384"><path
           inkscape:connector-curvature="0"
           id="path4386"
           style="fill:#ec0035;fill-opacity:1;fill-rule:nonzero;stroke:none"
           d="m 0,0 c 0,-4.138 3.354,-7.491 7.492,-7.491 4.137,0 7.491,3.353 7.491,7.491 0,4.138 -3.354,7.492 -7.491,7.492 C 3.354,7.492 0,4.138 0,0" /></g><g
         transform="translate(1498.1104,1158.4912)"
         id="g4388"><path
           inkscape:connector-curvature="0"
           id="path4390"
           style="fill:#ec0035;fill-opacity:1;fill-rule:nonzero;stroke:none"
           d="m 0,0 c 0,-4.137 3.354,-7.491 7.492,-7.491 4.137,0 7.491,3.354 7.491,7.491 0,4.138 -3.354,7.492 -7.491,7.492 C 3.354,7.492 0,4.138 0,0" /></g><g
         transform="translate(1714.4043,1631.1436)"
         id="g4392"><path
           inkscape:connector-curvature="0"
           id="path4394"
           style="fill:#ec0035;fill-opacity:1;fill-rule:nonzero;stroke:none"
           d="M 0,0 55.684,0 26.547,78.994 0,0 Z m 58.616,-2.043 -61.458,0 29.299,87.184 32.159,-87.184 z" /></g><g
         transform="translate(1516.0767,1692.1582)"
         id="g4396"><path
           inkscape:connector-curvature="0"
           id="path4398"
           style="fill:#ec0035;fill-opacity:1;fill-rule:nonzero;stroke:none"
           d="M 0,0 142.263,-11.282 218.094,19.427 0,0 Z m 142.582,-13.356 -0.24,0.018 -154.6,12.26 -0.01,2.036 243.833,21.721 -88.983,-36.035 z" /></g><g
         transform="translate(1724.8857,1521.584)"
         id="g4400"><path
           inkscape:connector-curvature="0"
           id="path4402"
           style="fill:#ec0035;fill-opacity:1;fill-rule:nonzero;stroke:none"
           d="M 0,0 -13.772,-187.81 43.823,99.539 0,0 Z m -14.987,-204.268 -2.021,0.277 14.996,204.492 0.071,0.162 51.455,116.874 -64.501,-321.805 z" /></g><g
         transform="translate(1664.1177,1602.5469)"
         id="g4404"><path
           inkscape:connector-curvature="0"
           id="path4406"
           style="fill:#ec0035;fill-opacity:1;fill-rule:nonzero;stroke:none"
           d="M 0,0 58.381,-77.192 48.003,25.947 0,0 Z M 61.143,-84.231 -3.065,0.666 49.729,29.203 61.143,-84.231 Z" /></g><g
         transform="translate(1576.3657,1482.5342)"
         id="g4408"><path
           inkscape:connector-curvature="0"
           id="path4410"
           style="fill:#ec0035;fill-opacity:1;fill-rule:nonzero;stroke:none"
           d="m 0,0 -29.645,39.527 113.108,80.119 -85.566,10.185 84.273,68.823 55.136,-50.311 -1.377,-1.51 L 82.096,195.955 2.916,131.292 88.976,121.046 -26.75,39.074 0.812,2.322 l 138.691,35.957 -163.614,0 0,2.043 179.636,0 L 0,0 Z" /></g><g
         transform="translate(1506.6235,1292.1406)"
         id="g4412"><path
           inkscape:connector-curvature="0"
           id="path4414"
           style="fill:#ec0035;fill-opacity:1;fill-rule:nonzero;stroke:none"
           d="M 0,0 0,-128.246 56.944,7.117 0,0 Z m -2.043,-138.372 0,540.985 40.929,-53.03 L 71.323,321.286 42.519,229.389 40.57,230 68.974,320.624 37.331,348.255 0,396.622 0,2.06 60.198,9.583 -2.043,-138.372 Z" /></g><g
         transform="translate(1605.7393,1349.0234)"
         id="g4416"><path
           inkscape:connector-curvature="0"
           id="path4418"
           style="fill:#ec0035;fill-opacity:1;fill-rule:nonzero;stroke:none"
           d="M 0,0 -37.52,-47.225 98.328,-31.052 0,0 Z m -99.843,-193.716 -1.27,1.602 L 99.695,-32.947 -42.208,-49.84 -0.726,2.371 -0.055,2.16 l 103.31,-32.626 3.365,0.402 -2.828,-2.243 -203.635,-161.409 z" /></g><g
         transform="translate(1505.8081,1393.3193)"
         id="g4420"><path
           inkscape:connector-curvature="0"
           id="path4422"
           style="fill:#ec0035;fill-opacity:1;fill-rule:nonzero;stroke:none"
           d="M 0,0 -0.412,2.002 36.705,9.65 37.117,7.648 0,0 Z" /></g><g
         transform="translate(1543.9863,1402.2412)"
         id="g4424"><path
           inkscape:connector-curvature="0"
           id="path4426"
           style="fill:#ec0035;fill-opacity:1;fill-rule:nonzero;stroke:none"
           d="M 0,0 58.089,-48.514 19.789,40.854 0,0 Z M 21.171,42.815 60.921,-49.935 176.86,117.017 21.171,42.815 Z m 42.158,-98.366 -65.863,55.006 20.686,42.707 -56.459,-4.292 -0.155,2.037 58.04,4.412 163.349,77.852 -121.056,-174.321 1.458,-3.401 z" /></g><g
         transform="translate(1564.7993,1445.2285)"
         id="g4428"><path
           inkscape:connector-curvature="0"
           id="path4430"
           style="fill:#ec0035;fill-opacity:1;fill-rule:nonzero;stroke:none"
           d="m 0,0 -1.935,0.656 12.558,37.012 -72.688,12.869 44.153,26.492 -42.966,103.864 39.782,15.847 0.756,-1.898 L -58.198,179.76 -15.351,76.184 -56.329,51.596 13.322,39.266 0,0 Z" /></g></g></g></svg>